<?xml version="1.0" encoding="utf-8"?>
<svg version="1.1" id="Layer_1"
xmlns="http://www.w3.org/2000/svg"
xmlns:xlink="http://www.w3.org/1999/xlink"
xmlns:author="http://www.sothink.com"
width="93px" height="139px"
xml:space="preserve">
<g id="1" transform="matrix(1, 0, 0, 1, 43.45, 29.3)">
<path style="fill:#2A2828;fill-opacity:1" d="M-21.75,47.45L-21.8 37.45L-24.8 37.05L-25.3 41.4L-26.25 41.2L-26.75 40.8L-35.25 40.75L-34.8 37.25L-26.45 36.65L-28.2 33.6L-27 1.65L-22.15 1.75L-21.7 33.3L-20.35 33.35L-19.75 21.3L-19.95 11.55L-20.55 11.15L-20.35 -26.85L-18.9 -27.75Q-17 -28.6 -14.8 -28.55L-14.1 -28.5L16.6 -28.55Q18.8 -28.6 20.7 -27.75L22.15 -26.85L22.4 11.15L21.75 11.55L21.55 21.3L22.15 33.35L23.5 33.3L23.95 1.75L28.8 1.65L30 33.6L28.25 36.65L36.6 37.25L37.05 40.75L28.55 40.8L28.05 41.2L27.1 41.4L26.65 37.05L23.65 37.45L23.55 47.45L21.65 47.5L21.6 63.65L22.15 63.75L22.4 69.75L21.75 69.8L21.55 71.25L21.55 71.4L22.15 73.3L23.5 73.25L23.95 68.25L28.8 68.25L30 73.3L28.25 73.8L36.6 73.9L37.05 74.45L28.55 74.45L28.05 84.05L27.1 84.1L26.65 83.4L21.65 83.5L6.6 86.7L15.35 86.7L17.85 87.75Q20.35 89.3 20.35 91.7L20.35 104L48.7 104.45L48.7 109.45L-42.7 109.45L-42.7 103.15L-19.15 103.45L-19.15 91.7Q-19.15 89.3 -16.65 87.75Q-15.4 87 -14.15 86.7L-4.8 86.7L-19.85 83.5L-24.8 83.4L-25.3 84.1L-26.25 84.05L-26.75 74.45L-35.25 74.45L-34.8 73.9L-26.45 73.8L-28.2 73.3L-27 68.25L-22.15 68.25L-21.7 73.25L-20.35 73.3L-19.75 71.4L-19.75 71.25L-19.95 69.8L-20.55 69.75L-20.35 63.75L-19.8 63.65L-19.8 47.5L-21.75 47.45M-21.9,26.8L-23.2 26.75L-24.4 34.4L-21.85 34.5L-21.9 26.8M-19.8,45.95L-19.85 37.7L-20.25 37.65L-19.8 45.95M22.05,37.65L21.65 37.7L21.65 45.95L22.05 37.65M26.2,34.4L25 26.75L23.7 26.8L23.65 34.5L26.2 34.4M10.75,-20.5L10.75 5.5L18.1 5.5L18.1 -20.5L10.75 -20.5M21.55,75.55L22.2 83L26.2 82.95L25 76.2L23.7 76.2L23.55 75.5L21.55 75.55M4.75,-20.5L-2.55 -20.5L-2.55 5.5L4.75 5.5L4.75 -20.5M-16.75,-20.5L-16.75 5.5L-9.4 5.5L-9.4 -20.5L-16.75 -20.5M-24.4,82.95L-20.4 83L-19.75 75.55L-21.75 75.5L-21.9 76.2L-23.2 76.2L-24.4 82.95" />
<path style="fill:none;stroke-width:1.5;stroke-linecap:round;stroke-linejoin:round;stroke-miterlimit:3;stroke:#2A2828;stroke-opacity:1" d="M48.7,104.45L20.35 104L20.35 91.7Q20.35 89.3 17.85 87.75L15.35 86.7L6.6 86.7L21.65 83.5L26.65 83.4L27.1 84.1L28.05 84.05L28.55 74.45L37.05 74.45L36.6 73.9L28.25 73.8L30 73.3L28.8 68.25L23.95 68.25L23.5 73.25L22.15 73.3L21.55 71.4L21.55 71.25L21.75 69.8L22.4 69.75L22.15 63.75L21.6 63.65L21.65 47.5L21.55 47.5L21.65 45.95L21.65 37.7L22.05 37.65L22.2 34.5L23.65 34.5L23.7 26.8L25 26.75L26.2 34.4L23.65 34.5L23.65 37.45L26.65 37.05L27.1 41.4L28.05 41.2L28.55 40.8L37.05 40.75L36.6 37.25L28.25 36.65L30 33.6L28.8 1.65L23.95 1.75L23.5 33.3L22.15 33.35L21.55 21.3L21.75 11.55L22.4 11.15L22.15 -26.85L20.7 -27.75Q18.8 -28.6 16.6 -28.55L-14.1 -28.5L-14.8 -28.55Q-17 -28.6 -18.9 -27.75L-20.35 -26.85L-20.55 11.15L-19.95 11.55L-19.75 21.3L-20.35 33.35L-21.7 33.3L-22.15 1.75L-27 1.65L-28.2 33.6L-26.45 36.65L-34.8 37.25L-35.25 40.75L-26.75 40.8L-26.25 41.2L-25.3 41.4L-24.8 37.05L-21.8 37.45L-21.85 34.5L-24.4 34.4L-23.2 26.75L-21.9 26.8L-21.85 34.5L-20.4 34.5L-20.25 37.65L-19.85 37.7L-19.8 45.95L-19.75 47.5L-19.8 47.5L-19.8 63.65L-20.35 63.75L-20.55 69.75L-19.95 69.8L-19.75 71.25L-19.75 71.4L-20.35 73.3L-21.7 73.25L-22.15 68.25L-27 68.25L-28.2 73.3L-26.45 73.8L-34.8 73.9L-35.25 74.45L-26.75 74.45L-26.25 84.05L-25.3 84.1L-24.8 83.4L-19.85 83.5L-4.8 86.7L-14.15 86.7Q-15.4 87 -16.65 87.75Q-19.15 89.3 -19.15 91.7L-19.15 103.45L-42.7 103.15M23.65,37.45L23.55 47.45L21.65 47.5L21.65 45.95L22.05 37.65L23.65 37.45M18.1,-20.5L18.1 5.5L10.75 5.5L10.75 -20.5L18.1 -20.5M23.55,75.5L23.7 76.2L25 76.2L26.2 82.95L22.2 83L21.55 75.55L23.55 75.5M4.75,5.5L-2.55 5.5L-2.55 -20.5L4.75 -20.5L4.75 5.5M-9.4,-20.5L-9.4 5.5L-16.75 5.5L-16.75 -20.5L-9.4 -20.5M-21.8,37.45L-21.75 47.45L-19.8 47.5L-19.8 45.95L-20.25 37.65L-21.8 37.45M-23.2,76.2L-21.9 76.2L-21.75 75.5L-19.75 75.55L-20.4 83L-24.4 82.95L-23.2 76.2" />
</g>
</svg>
