<?xml version="1.0" encoding="utf-8"?>
<svg version="1.1" id="Layer_1"
xmlns="http://www.w3.org/2000/svg"
xmlns:xlink="http://www.w3.org/1999/xlink"
xmlns:author="http://www.sothink.com"
width="355px" height="165px"
xml:space="preserve">
<g id="0" transform="matrix(1, 0, 0, 1, 177.35, 82.15)">
<path style="fill:#2A2828;fill-opacity:1" d="M-151.85,-24.15Q-123.75 -32.65 -112.55 -33.9Q-104.85 -34.8 -63.1 -35.15L-55.85 -37.65L-29.65 -38.4Q-30.2 -40.9 -30.2 -42.75Q-30.2 -46.8 -28.05 -47.75L-26.9 -48Q-24.85 -47.9 -22.4 -45.55Q-20.05 -43.2 -17.95 -39.3Q-15.25 -39.05 -13.05 -37.8L-6.35 -39.15Q-5.75 -55.2 -4 -56.95Q-7.45 -58.55 -9.5 -61.7Q-11.6 -65 -11.6 -68.9Q-11.6 -74.4 -7.75 -78.3Q-3.85 -82.15 1.65 -82.15Q7.15 -82.15 11 -78.3Q14.9 -74.4 14.9 -68.9Q14.9 -63.25 10.75 -59.35Q15.3 -56.75 18.1 -51.8Q21.9 -45.05 21.9 -34.65L21.9 -28.95Q26.1 -42.6 26.65 -43.4Q27.1 -44.1 29.05 -44.7L32.5 -45.3L37.75 -45.05L37.4 -35.55L39.4 -38.15Q41.55 -40.8 42.25 -40.8L47 -40.45Q50.95 -40.05 51 -39.4Q51.15 -38.4 50.9 -34.4L50.65 -32.65L47.15 -32.3L45 -28.8Q42.85 -25.1 42.75 -24.4L86.4 -23.85L86.4 -35.65Q86.4 -38.05 88.9 -39.6L90.6 -40.4L121.5 -40.4L123.4 -39.6Q125.9 -38.05 125.9 -35.65L125.9 -23.3L170.15 -22.65L177.4 -16.9L175.9 33.35L173.4 34.35Q173.4 37.6 172.25 41.25Q170.85 45.6 168.65 46.6Q166.6 47.55 160.3 46.8L154.4 45.85L151.9 30.1L129.15 31.6L150.65 38.6L146.4 43.6L129.9 36.35L121.15 39.35Q122.4 41.35 121.9 48.35L121.6 53.6Q120.75 59.95 117.95 65.25Q108.85 82.1 83.4 82.1Q57.95 82.1 49.1 61.35Q46.35 54.85 45.6 47.1L45.4 40.6L43.15 43.85L26.9 44.1L24.65 47.6L20.4 47.6L17.9 44.6L-71.6 43.6L-74.35 41.85L-78.3 47Q-82.65 52.35 -84.85 53.6Q-87.05 54.85 -97.3 55L-107.1 54.85Q-109.7 67.65 -122.8 72.55Q-131 75.6 -144.35 75.6Q-155.25 75.6 -165.25 67.65Q-177.35 58 -177.35 42.6Q-177.35 28.4 -167.6 17.95Q-164.55 14.7 -160.9 12.2L-157.85 10.35L-161.25 8.2L-164.1 7.85Q-170.75 10.85 -171.85 10.35Q-171.45 8.75 -170.15 6.55Q-167.5 2.15 -162.75 -0.8L-163 -10.05L-161.1 -16.9L-159.1 -19.65L-156.85 -20.25L-154.85 -20.55L-155.35 -20.55L-154.25 -21.15L-151.85 -24.15M-29.2,-42.75Q-29.2 -38.7 -27.1 -33.55L-24.65 -34.8L-29.15 -43.3L-29.2 -42.75M-21.75,-38.55Q-21.3 -39.35 -19.1 -39.35Q-22.2 -44.9 -25.4 -46.6L-22.8 -35.75L-22.6 -35.85L-21.4 -37.05Q-22.05 -37.95 -21.75 -38.55M-29,-27.8Q-27.6 -22.15 -27.85 -21.65Q-28.1 -21.15 -30.1 -20.4L-32 -20.1L-32 -19.15L-6.75 -19.6L-6.6 -30.5L-14.2 -24.45Q-14.6 -21.85 -16.25 -21.1L-17.35 -20.9Q-19.4 -20.95 -21.85 -23.3Q-24.2 -25.6 -26.3 -29.5L-29 -27.8M-22,-24.95Q-20.2 -22.9 -18.65 -22.2L-22.5 -31.85L-25.45 -30Q-23.85 -27.05 -22 -24.95M-30.25,-31.9L-28 -33.1L-29.55 -37.85L-31 -35.15L-30.25 -31.9" />
</g>
</svg>
